<mxfile host="app.diagrams.net" modified="2023-05-18T16:27:34.949Z" agent="Mozilla/5.0 (Macintosh; Intel Mac OS X 10_15_7) AppleWebKit/537.36 (KHTML, like Gecko) Chrome/113.0.0.0 Safari/537.36" etag="pkiwWdxUCianTcUjQIVo" version="21.2.9" type="github">
  <diagram name="Page-1" id="s3-B2lNmDqJaXTqRi-Ta">
    <mxGraphModel dx="1190" dy="859" grid="1" gridSize="10" guides="1" tooltips="1" connect="1" arrows="1" fold="1" page="1" pageScale="1" pageWidth="850" pageHeight="1100" math="0" shadow="0">
      <root>
        <mxCell id="0" />
        <mxCell id="1" parent="0" />
        <mxCell id="KQoT7uy3OLMCn8jF9Ctp-1" value="Model&lt;br&gt;" style="rounded=0;whiteSpace=wrap;html=1;" vertex="1" parent="1">
          <mxGeometry x="70" y="210" width="160" height="120" as="geometry" />
        </mxCell>
        <mxCell id="KQoT7uy3OLMCn8jF9Ctp-2" value="Solution&lt;br&gt;" style="rounded=0;whiteSpace=wrap;html=1;" vertex="1" parent="1">
          <mxGeometry x="510" y="240" width="120" height="60" as="geometry" />
        </mxCell>
        <mxCell id="KQoT7uy3OLMCn8jF9Ctp-3" value="" style="endArrow=classic;html=1;rounded=0;entryX=0.5;entryY=0;entryDx=0;entryDy=0;" edge="1" parent="1" target="KQoT7uy3OLMCn8jF9Ctp-1">
          <mxGeometry width="50" height="50" relative="1" as="geometry">
            <mxPoint x="150" y="120" as="sourcePoint" />
            <mxPoint x="200" y="70" as="targetPoint" />
          </mxGeometry>
        </mxCell>
        <mxCell id="KQoT7uy3OLMCn8jF9Ctp-5" value="" style="endArrow=classic;html=1;rounded=0;exitX=1.006;exitY=0.442;exitDx=0;exitDy=0;exitPerimeter=0;entryX=-0.017;entryY=0.383;entryDx=0;entryDy=0;entryPerimeter=0;" edge="1" parent="1" source="KQoT7uy3OLMCn8jF9Ctp-1" target="KQoT7uy3OLMCn8jF9Ctp-2">
          <mxGeometry relative="1" as="geometry">
            <mxPoint x="560" y="420" as="sourcePoint" />
            <mxPoint x="660" y="420" as="targetPoint" />
          </mxGeometry>
        </mxCell>
        <mxCell id="KQoT7uy3OLMCn8jF9Ctp-6" value="Create Solution from Model" style="edgeLabel;resizable=0;html=1;align=center;verticalAlign=middle;" connectable="0" vertex="1" parent="KQoT7uy3OLMCn8jF9Ctp-5">
          <mxGeometry relative="1" as="geometry" />
        </mxCell>
        <mxCell id="KQoT7uy3OLMCn8jF9Ctp-7" value="Template" style="rounded=1;whiteSpace=wrap;html=1;" vertex="1" parent="1">
          <mxGeometry x="90" y="380" width="120" height="60" as="geometry" />
        </mxCell>
        <mxCell id="KQoT7uy3OLMCn8jF9Ctp-8" value="Proposal" style="rounded=1;whiteSpace=wrap;html=1;" vertex="1" parent="1">
          <mxGeometry x="510" y="380" width="120" height="60" as="geometry" />
        </mxCell>
        <mxCell id="KQoT7uy3OLMCn8jF9Ctp-10" value="" style="endArrow=classic;html=1;rounded=0;exitX=0.5;exitY=1;exitDx=0;exitDy=0;" edge="1" parent="1" source="KQoT7uy3OLMCn8jF9Ctp-1" target="KQoT7uy3OLMCn8jF9Ctp-7">
          <mxGeometry relative="1" as="geometry">
            <mxPoint x="560" y="420" as="sourcePoint" />
            <mxPoint x="660" y="420" as="targetPoint" />
          </mxGeometry>
        </mxCell>
        <mxCell id="KQoT7uy3OLMCn8jF9Ctp-11" value="Create Template inside Model" style="edgeLabel;resizable=0;html=1;align=center;verticalAlign=middle;" connectable="0" vertex="1" parent="KQoT7uy3OLMCn8jF9Ctp-10">
          <mxGeometry relative="1" as="geometry" />
        </mxCell>
        <mxCell id="KQoT7uy3OLMCn8jF9Ctp-12" value="" style="endArrow=classic;html=1;rounded=0;exitX=0.5;exitY=1;exitDx=0;exitDy=0;entryX=0.5;entryY=0;entryDx=0;entryDy=0;" edge="1" parent="1" source="KQoT7uy3OLMCn8jF9Ctp-2" target="KQoT7uy3OLMCn8jF9Ctp-8">
          <mxGeometry width="50" height="50" relative="1" as="geometry">
            <mxPoint x="580" y="440" as="sourcePoint" />
            <mxPoint x="630" y="390" as="targetPoint" />
          </mxGeometry>
        </mxCell>
        <mxCell id="KQoT7uy3OLMCn8jF9Ctp-13" value="Create Proposal inside Slution&lt;br&gt;- Solution should be created from Model which has template" style="edgeLabel;html=1;align=center;verticalAlign=middle;resizable=0;points=[];" vertex="1" connectable="0" parent="KQoT7uy3OLMCn8jF9Ctp-12">
          <mxGeometry x="-0.025" relative="1" as="geometry">
            <mxPoint as="offset" />
          </mxGeometry>
        </mxCell>
        <mxCell id="KQoT7uy3OLMCn8jF9Ctp-14" value="Proposal can be generated&amp;nbsp;&lt;br&gt;from template" style="endArrow=classic;html=1;rounded=0;exitX=1;exitY=0.5;exitDx=0;exitDy=0;entryX=0;entryY=0.5;entryDx=0;entryDy=0;" edge="1" parent="1" source="KQoT7uy3OLMCn8jF9Ctp-7" target="KQoT7uy3OLMCn8jF9Ctp-8">
          <mxGeometry width="50" height="50" relative="1" as="geometry">
            <mxPoint x="580" y="440" as="sourcePoint" />
            <mxPoint x="630" y="390" as="targetPoint" />
            <Array as="points" />
          </mxGeometry>
        </mxCell>
        <mxCell id="KQoT7uy3OLMCn8jF9Ctp-15" value="Theme" style="ellipse;whiteSpace=wrap;html=1;aspect=fixed;" vertex="1" parent="1">
          <mxGeometry x="320" y="580" width="80" height="80" as="geometry" />
        </mxCell>
        <mxCell id="KQoT7uy3OLMCn8jF9Ctp-16" value="Theme can adjust style of template" style="endArrow=classic;html=1;rounded=0;exitX=0.5;exitY=0;exitDx=0;exitDy=0;entryX=0.5;entryY=1;entryDx=0;entryDy=0;" edge="1" parent="1" source="KQoT7uy3OLMCn8jF9Ctp-15" target="KQoT7uy3OLMCn8jF9Ctp-7">
          <mxGeometry width="50" height="50" relative="1" as="geometry">
            <mxPoint x="580" y="430" as="sourcePoint" />
            <mxPoint x="630" y="380" as="targetPoint" />
          </mxGeometry>
        </mxCell>
        <mxCell id="KQoT7uy3OLMCn8jF9Ctp-17" value="Theme copied from template to proposal" style="endArrow=none;dashed=1;html=1;dashPattern=1 3;strokeWidth=2;rounded=0;exitX=1;exitY=0.867;exitDx=0;exitDy=0;exitPerimeter=0;entryX=-0.05;entryY=0.917;entryDx=0;entryDy=0;entryPerimeter=0;" edge="1" parent="1" source="KQoT7uy3OLMCn8jF9Ctp-7" target="KQoT7uy3OLMCn8jF9Ctp-8">
          <mxGeometry width="50" height="50" relative="1" as="geometry">
            <mxPoint x="580" y="430" as="sourcePoint" />
            <mxPoint x="630" y="380" as="targetPoint" />
          </mxGeometry>
        </mxCell>
      </root>
    </mxGraphModel>
  </diagram>
</mxfile>
